<?xml version="1.0" encoding="UTF-8" standalone="no"?><!DOCTYPE svg PUBLIC "-//W3C//DTD SVG 1.1//EN" "http://www.w3.org/Graphics/SVG/1.1/DTD/svg11.dtd"><svg width="100%" height="100%" viewBox="0 0 232 232" version="1.1" xmlns="http://www.w3.org/2000/svg" xmlns:xlink="http://www.w3.org/1999/xlink" xml:space="preserve" xmlns:serif="http://www.serif.com/" style="fill-rule:evenodd;clip-rule:evenodd;stroke-linejoin:round;stroke-miterlimit:2;"><rect id="Energizer-2" x="0" y="0" width="230.005" height="230.005" style="fill:none;"/><clipPath id="_clip1"><rect x="0" y="0" width="230.005" height="230.005"/></clipPath><g clip-path="url(#_clip1)"><g><circle cx="115.002" cy="115.002" r="115.002" style="fill:#b8c1cc;"/><path d="M41.345,203.296c1.619,-0.244 3.315,-0.468 5.114,-0.689c15.2,-1.873 24.367,9.732 38.475,12.939c15.769,3.584 26.876,-15.399 43.148,-14.241c13.813,0.984 21.147,13.279 31.941,19.539c-13.826,5.896 -29.045,9.161 -45.021,9.161c-28.01,-0 -53.694,-10.036 -73.657,-26.709Z" style="fill:#4883c9;"/></g><g><path d="M108.907,43.783l54.358,0l-31.246,42.155l20.892,-0l-30.507,39.936l15.716,0l-62.308,67.67l25.515,-52.694l-14.606,0l19.413,-40.121l-18.304,0l21.077,-56.946Z" style="fill:#fbeb3d;"/><path d="M135.403,43.783l27.862,0l-31.246,42.155l20.892,-0l-30.507,39.936l15.716,0l-62.308,67.67l43.727,-65.468l-11.538,-0.026l21.053,-40.304l-11.71,-0l18.059,-43.963Z" style="fill:#febf07;"/></g></g></svg>