<?xml version="1.0" encoding="UTF-8" standalone="no"?><!DOCTYPE svg PUBLIC "-//W3C//DTD SVG 1.1//EN" "http://www.w3.org/Graphics/SVG/1.1/DTD/svg11.dtd"><svg width="100%" height="100%" viewBox="0 0 232 232" version="1.1" xmlns="http://www.w3.org/2000/svg" xmlns:xlink="http://www.w3.org/1999/xlink" xml:space="preserve" xmlns:serif="http://www.serif.com/" style="fill-rule:evenodd;clip-rule:evenodd;stroke-linejoin:round;stroke-miterlimit:2;"><rect id="Energizer-7" x="-0" y="0" width="230.005" height="230.005" style="fill:none;"/><clipPath id="_clip1"><rect x="-0" y="0" width="230.005" height="230.005"/></clipPath><g clip-path="url(#_clip1)"><circle cx="115.002" cy="115.002" r="115.002" style="fill:#b8c1cc;"/><path d="M9.963,68.144c7.898,5.864 15.343,13.003 25.127,13.085c13.513,0.113 26.802,-6.343 37.547,-14.22c8.919,-6.539 16.279,-8.034 27.807,-9.454c15.201,-1.873 24.367,9.732 38.475,12.939c15.769,3.584 26.876,-15.399 43.148,-14.24c16.887,1.202 24.09,19.309 39.77,22.631c0.832,0.177 1.662,0.293 2.489,0.354c3.685,11.256 5.679,23.279 5.679,35.763c-0,63.472 -51.531,115.003 -115.003,115.003c-63.471,-0 -115.002,-51.531 -115.002,-115.003c-0,-16.686 3.562,-32.548 9.963,-46.858Z" style="fill:#4883c9;"/><g><path d="M108.707,43.783l54.357,0l-31.246,42.155l20.893,-0l-30.507,39.936l15.715,0l-62.307,67.67l25.514,-52.694l-14.606,0l19.413,-40.121l-18.304,0l21.078,-56.946Z" style="fill:#fbeb3d;"/><path d="M135.203,43.783l27.861,0l-31.246,42.155l20.893,-0l-30.507,39.936l15.715,0l-62.307,67.67l43.726,-65.468l-11.538,-0.026l21.053,-40.304l-11.71,-0l18.06,-43.963Z" style="fill:#febf07;"/></g></g></svg>