<?xml version="1.0" encoding="UTF-8" standalone="no"?><!DOCTYPE svg PUBLIC "-//W3C//DTD SVG 1.1//EN" "http://www.w3.org/Graphics/SVG/1.1/DTD/svg11.dtd"><svg width="100%" height="100%" viewBox="0 0 231 231" version="1.1" xmlns="http://www.w3.org/2000/svg" xmlns:xlink="http://www.w3.org/1999/xlink" xml:space="preserve" xmlns:serif="http://www.serif.com/" style="fill-rule:evenodd;clip-rule:evenodd;stroke-linejoin:round;stroke-miterlimit:2;"><rect id="Energizer-9" x="-0" y="0" width="230.005" height="230.005" style="fill:none;"/><clipPath id="_clip1"><rect x="-0" y="0" width="230.005" height="230.005"/></clipPath><g clip-path="url(#_clip1)"><circle cx="115.002" cy="115.002" r="115.002" style="fill:#4883c9;"/><path d="M108.627,43.783l54.357,0l-31.246,42.155l20.892,-0l-30.507,39.936l15.716,0l-62.308,67.67l25.515,-52.694l-14.606,0l19.413,-40.121l-18.304,0l21.078,-56.946Z" style="fill:#fbeb3d;"/><path d="M135.122,43.783l27.862,0l-31.246,42.155l20.892,-0l-30.507,39.936l15.716,0l-62.308,67.67l43.727,-65.468l-11.538,-0.026l21.053,-40.304l-11.71,-0l18.059,-43.963Z" style="fill:#febf07;"/></g></svg>