<?xml version="1.0" encoding="UTF-8" standalone="no"?><!DOCTYPE svg PUBLIC "-//W3C//DTD SVG 1.1//EN" "http://www.w3.org/Graphics/SVG/1.1/DTD/svg11.dtd"><svg width="100%" height="100%" viewBox="0 0 96 96" version="1.1" xmlns="http://www.w3.org/2000/svg" xmlns:xlink="http://www.w3.org/1999/xlink" xml:space="preserve" xmlns:serif="http://www.serif.com/" style="fill-rule:evenodd;clip-rule:evenodd;stroke-linecap:round;stroke-linejoin:round;stroke-miterlimit:1.5;"><rect id="Energizer_08" x="1.716" y="1.439" width="93.75" height="93.75" style="fill:none;"/><circle cx="48.591" cy="48.314" r="44.792" style="fill:#d8d8d8;stroke:#303030;stroke-width:2.08px;"/><path d="M84.417,21.439c5.63,7.49 8.966,16.796 8.966,26.875c-0,24.721 -20.071,44.791 -44.792,44.791c-24.721,0 -44.792,-20.07 -44.792,-44.791c0,-10.079 3.336,-19.385 8.966,-26.875l71.652,-0Z" style="fill:#303030;"/><path d="M42.88,22.608l26.837,-0.414l-14.325,19.031l7.144,-0l-13.433,17.685l5.159,0l-18.498,23.391l4.407,-15.186l-5.309,0l6.73,-17.012l-4.634,0l5.922,-27.495Z" style="fill:#fff;"/></svg>