<?xml version="1.0" encoding="UTF-8" standalone="no"?><!DOCTYPE svg PUBLIC "-//W3C//DTD SVG 1.1//EN" "http://www.w3.org/Graphics/SVG/1.1/DTD/svg11.dtd"><svg width="100%" height="100%" viewBox="0 0 232 232" version="1.1" xmlns="http://www.w3.org/2000/svg" xmlns:xlink="http://www.w3.org/1999/xlink" xml:space="preserve" xmlns:serif="http://www.serif.com/" style="fill-rule:evenodd;clip-rule:evenodd;stroke-linejoin:round;stroke-miterlimit:2;"><rect id="Energizer-8" x="-0" y="0" width="230.005" height="230.005" style="fill:none;"/><clipPath id="_clip1"><rect x="-0" y="0" width="230.005" height="230.005"/></clipPath><g clip-path="url(#_clip1)"><circle cx="115.002" cy="115.002" r="115.002" style="fill:#b8c1cc;"/><path d="M31.828,35.614c7.277,-4.347 14.057,-5.605 23.837,-6.81c15.201,-1.872 24.368,9.733 38.475,12.939c15.769,3.585 26.876,-15.399 43.148,-14.24c16.887,1.202 24.091,19.31 39.77,22.631c9.568,2.028 18.739,-3.87 26.747,-8.174c16.368,19.872 26.2,45.318 26.2,73.042c-0,63.472 -51.531,115.003 -115.003,115.003c-63.471,-0 -115.002,-51.531 -115.002,-115.003c-0,-30.771 12.111,-58.735 31.828,-79.388Z" style="fill:#4883c9;"/><path d="M108.667,43.783l54.357,0l-31.246,42.155l20.892,-0l-30.506,39.936l15.715,0l-62.308,67.67l25.515,-52.694l-14.606,0l19.413,-40.121l-18.304,0l21.078,-56.946Z" style="fill:#fbeb3d;"/><path d="M135.162,43.783l27.862,0l-31.246,42.155l20.892,-0l-30.506,39.936l15.715,0l-62.308,67.67l43.727,-65.468l-11.538,-0.026l21.053,-40.304l-11.71,-0l18.059,-43.963Z" style="fill:#febf07;"/></g></svg>