<?xml version="1.0" encoding="UTF-8" standalone="no"?><!DOCTYPE svg PUBLIC "-//W3C//DTD SVG 1.1//EN" "http://www.w3.org/Graphics/SVG/1.1/DTD/svg11.dtd"><svg width="100%" height="100%" viewBox="0 0 232 232" version="1.1" xmlns="http://www.w3.org/2000/svg" xmlns:xlink="http://www.w3.org/1999/xlink" xml:space="preserve" xmlns:serif="http://www.serif.com/" style="fill-rule:evenodd;clip-rule:evenodd;stroke-linejoin:round;stroke-miterlimit:2;"><rect id="Energizer-6" x="-0" y="0" width="230.005" height="230.005" style="fill:none;"/><clipPath id="_clip1"><rect x="-0" y="0" width="230.005" height="230.005"/></clipPath><g clip-path="url(#_clip1)"><circle cx="115.002" cy="115.002" r="115.002" style="fill:#b8c1cc;"/><path d="M226.579,87.054c2.238,8.954 3.426,18.313 3.426,27.948c-0,63.472 -51.531,115.003 -115.003,115.003c-63.471,-0 -115.002,-51.531 -115.002,-115.003c0,-3.37 0.145,-6.707 0.43,-9.997c16.878,-0.724 30.079,-17.782 47.596,-13.894c14.19,3.15 23.713,20.041 38.793,20.167c13.514,0.113 26.803,-6.342 37.547,-14.22c8.919,-6.539 16.28,-8.034 27.807,-9.454c15.201,-1.872 24.368,9.733 38.476,12.939c13.329,3.03 23.328,-10.065 35.93,-13.489Z" style="fill:#4883c9;"/><path d="M108.747,43.783l54.357,0l-31.246,42.155l20.893,-0l-30.507,39.936l15.715,0l-62.307,67.67l25.514,-52.694l-14.606,0l19.414,-40.121l-18.305,0l21.078,-56.946Z" style="fill:#fbeb3d;"/><path d="M135.243,43.783l27.861,0l-31.246,42.155l20.893,-0l-30.507,39.936l15.715,0l-62.307,67.67l43.726,-65.468l-11.538,-0.026l21.053,-40.304l-11.71,-0l18.06,-43.963Z" style="fill:#febf07;"/></g></svg>