<?xml version="1.0" encoding="UTF-8" standalone="no"?><!DOCTYPE svg PUBLIC "-//W3C//DTD SVG 1.1//EN" "http://www.w3.org/Graphics/SVG/1.1/DTD/svg11.dtd"><svg width="100%" height="100%" viewBox="0 0 96 96" version="1.1" xmlns="http://www.w3.org/2000/svg" xmlns:xlink="http://www.w3.org/1999/xlink" xml:space="preserve" xmlns:serif="http://www.serif.com/" style="fill-rule:evenodd;clip-rule:evenodd;stroke-linecap:round;stroke-linejoin:round;stroke-miterlimit:1.5;"><rect id="Energizer_09" x="0.141" y="1.439" width="93.75" height="93.75" style="fill:none;"/><circle cx="47.016" cy="48.314" r="44.792" style="fill:#d8d8d8;stroke:#303030;stroke-width:2.08px;"/><path d="M73.882,12.48c10.883,8.176 17.926,21.189 17.926,35.834c0,24.721 -20.07,44.791 -44.792,44.791c-24.721,0 -44.791,-20.07 -44.791,-44.791c-0,-14.645 7.043,-27.658 17.926,-35.834l53.731,0Z" style="fill:#303030;"/><path d="M41.436,22.249l27.621,-0.61l-15.239,19.586l7.143,-0l-13.433,17.685l5.159,0l-18.498,23.391l4.407,-15.186l-5.309,0l6.731,-17.012l-4.634,0l6.052,-27.854Z" style="fill:#fff;"/></svg>