<?xml version="1.0" encoding="UTF-8" standalone="no"?><!DOCTYPE svg PUBLIC "-//W3C//DTD SVG 1.1//EN" "http://www.w3.org/Graphics/SVG/1.1/DTD/svg11.dtd"><svg width="100%" height="100%" viewBox="0 0 231 231" version="1.1" xmlns="http://www.w3.org/2000/svg" xmlns:xlink="http://www.w3.org/1999/xlink" xml:space="preserve" xmlns:serif="http://www.serif.com/" style="fill-rule:evenodd;clip-rule:evenodd;stroke-linejoin:round;stroke-miterlimit:2;"><rect id="Energizer-10" x="-0" y="0" width="230.005" height="230.005" style="fill:none;"/><clipPath id="_clip1"><rect x="-0" y="0" width="230.005" height="230.005"/></clipPath><g clip-path="url(#_clip1)"><circle cx="115.002" cy="115.002" r="115.002" style="fill:#4883c9;"/><path d="M115.002,0c63.472,0 115.003,51.531 115.003,115.002c-0,63.472 -51.531,115.003 -115.003,115.003c-63.471,-0 -115.002,-51.531 -115.002,-115.003c0,-63.471 51.531,-115.002 115.002,-115.002Zm0,4.167c61.172,-0 110.836,49.663 110.836,110.835c0,61.172 -49.664,110.836 -110.836,110.836c-61.172,0 -110.835,-49.664 -110.835,-110.836c-0,-61.172 49.663,-110.835 110.835,-110.835Z" style="fill:#fefce7;"/><path d="M108.72,43.75l54.358,0l-31.247,42.155l20.893,-0l-30.507,39.936l15.716,0l-62.308,67.67l25.515,-52.694l-14.607,0l19.414,-40.121l-18.304,0l21.077,-56.946Z" style="fill:#fbeb3d;"/><path d="M168.043,41.25l-61.063,-0l-22.928,61.946l17.908,0c-0,-0 -19.413,40.121 -19.413,40.121l14.605,0c-0,0 -31.155,64.341 -31.155,64.341l77.636,-84.317l-16.36,0c-0,0 30.507,-39.936 30.507,-39.936l-20.984,-0c0,-0 31.247,-42.155 31.247,-42.155Zm-59.323,2.5l54.358,0l-31.247,42.155l20.893,-0l-30.507,39.936l15.716,0l-62.308,67.67l25.515,-52.694l-14.607,0l19.414,-40.121l-18.304,0l21.077,-56.946Z" style="fill:#fefce7;"/><path d="M135.216,43.75l27.862,0l-31.247,42.155l20.893,-0l-30.507,39.936l15.716,0l-62.308,67.67l43.726,-65.468l-11.538,-0.026l21.053,-40.304l-11.709,-0l18.059,-43.963Z" style="fill:#febf07;"/></g></svg>