<?xml version="1.0" encoding="UTF-8" standalone="no"?><!DOCTYPE svg PUBLIC "-//W3C//DTD SVG 1.1//EN" "http://www.w3.org/Graphics/SVG/1.1/DTD/svg11.dtd"><svg width="100%" height="100%" viewBox="0 0 96 96" version="1.1" xmlns="http://www.w3.org/2000/svg" xmlns:xlink="http://www.w3.org/1999/xlink" xml:space="preserve" xmlns:serif="http://www.serif.com/" style="fill-rule:evenodd;clip-rule:evenodd;stroke-linecap:round;stroke-linejoin:round;stroke-miterlimit:1.5;"><rect id="Energizer_06" x="0.699" y="1.439" width="93.75" height="93.75" style="fill:none;"/><circle cx="47.574" cy="48.314" r="44.792" style="fill:#d8d8d8;stroke:#303030;stroke-width:2.08px;"/><path d="M91.468,39.355c0.588,2.894 0.897,5.891 0.897,8.959c0,24.721 -20.07,44.791 -44.791,44.791c-24.722,0 -44.792,-20.07 -44.792,-44.791c0,-3.068 0.309,-6.065 0.898,-8.959l87.788,0Z" style="fill:#303030;"/><path d="M41.993,22.249l27.621,-0.61l-15.239,19.586l7.143,-0l-13.432,17.685l5.159,0l-18.498,23.391l4.406,-15.186l-5.309,0l6.731,-17.012l-4.634,0l6.052,-27.854Z" style="fill:#fff;"/></svg>