<?xml version="1.0" encoding="UTF-8" standalone="no"?><!DOCTYPE svg PUBLIC "-//W3C//DTD SVG 1.1//EN" "http://www.w3.org/Graphics/SVG/1.1/DTD/svg11.dtd"><svg width="100%" height="100%" viewBox="0 0 232 232" version="1.1" xmlns="http://www.w3.org/2000/svg" xmlns:xlink="http://www.w3.org/1999/xlink" xml:space="preserve" xmlns:serif="http://www.serif.com/" style="fill-rule:evenodd;clip-rule:evenodd;stroke-linejoin:round;stroke-miterlimit:2;"><rect id="Energizer-5" x="-0" y="0" width="230.005" height="230.005" style="fill:none;"/><clipPath id="_clip1"><rect x="-0" y="0" width="230.005" height="230.005"/></clipPath><g clip-path="url(#_clip1)"><circle cx="115.002" cy="115.002" r="115.002" style="fill:#b8c1cc;"/><path d="M0.097,119.756c12.187,4.92 21.299,18.86 34.993,18.974c13.513,0.113 26.802,-6.342 37.547,-14.22c8.919,-6.539 16.279,-8.034 27.807,-9.454c15.201,-1.872 24.367,9.732 38.475,12.939c15.769,3.584 26.876,-15.399 43.148,-14.24c16.887,1.202 24.09,19.309 39.77,22.631c2.062,0.437 4.106,0.506 6.122,0.301c-10.155,53.122 -56.899,93.318 -112.957,93.318c-61.878,-0 -112.408,-48.977 -114.905,-110.249Z" style="fill:#4883c9;"/><path d="M108.787,43.783l54.358,0l-31.247,42.155l20.893,-0l-30.507,39.936l15.716,0l-62.308,67.67l25.515,-52.694l-14.607,0l19.414,-40.121l-18.304,0l21.077,-56.946Z" style="fill:#fbeb3d;"/><path d="M135.283,43.783l27.862,0l-31.247,42.155l20.893,-0l-30.507,39.936l15.716,0l-62.308,67.67l43.726,-65.468l-11.538,-0.026l21.053,-40.304l-11.71,-0l18.06,-43.963Z" style="fill:#febf07;"/></g></svg>