<?xml version="1.0" encoding="UTF-8" standalone="no"?><!DOCTYPE svg PUBLIC "-//W3C//DTD SVG 1.1//EN" "http://www.w3.org/Graphics/SVG/1.1/DTD/svg11.dtd"><svg width="100%" height="100%" viewBox="0 0 232 232" version="1.1" xmlns="http://www.w3.org/2000/svg" xmlns:xlink="http://www.w3.org/1999/xlink" xml:space="preserve" xmlns:serif="http://www.serif.com/" style="fill-rule:evenodd;clip-rule:evenodd;stroke-linejoin:round;stroke-miterlimit:2;"><rect id="Energizer-3" x="-0" y="0" width="230.005" height="230.005" style="fill:none;"/><clipPath id="_clip1"><rect x="-0" y="0" width="230.005" height="230.005"/></clipPath><g clip-path="url(#_clip1)"><g><circle cx="115.002" cy="115.002" r="115.002" style="fill:#b8c1cc;"/><path d="M26.71,188.661c4.49,1.603 9.117,2.645 13.989,2.619c17.344,-0.09 30.713,-17.879 48.563,-13.917c14.191,3.15 23.714,20.041 38.794,20.167c13.513,0.113 26.802,-6.342 37.547,-14.22c8.919,-6.539 16.279,-8.034 27.807,-9.454c6.922,-0.853 12.593,1.09 18.048,3.761c-20.516,31.524 -56.069,52.388 -96.456,52.388c-35.455,-0 -67.184,-16.08 -88.292,-41.344Z" style="fill:#4883c9;"/></g><g><path d="M108.867,43.783l54.358,0l-31.247,42.155l20.893,-0l-30.507,39.936l15.716,0l-62.308,67.67l25.515,-52.694l-14.606,0l19.413,-40.121l-18.304,0l21.077,-56.946Z" style="fill:#fbeb3d;"/><path d="M135.363,43.783l27.862,0l-31.247,42.155l20.893,-0l-30.507,39.936l15.716,0l-62.308,67.67l43.726,-65.468l-11.537,-0.026l21.052,-40.304l-11.709,-0l18.059,-43.963Z" style="fill:#febf07;"/></g></g></svg>