<?xml version="1.0" encoding="UTF-8" standalone="no"?>
<!DOCTYPE svg PUBLIC "-//W3C//DTD SVG 1.1//EN" "http://www.w3.org/Graphics/SVG/1.1/DTD/svg11.dtd">
<svg width="100%" height="100%" viewBox="0 0 33 39" version="1.1" xmlns="http://www.w3.org/2000/svg" xmlns:xlink="http://www.w3.org/1999/xlink" xml:space="preserve" xmlns:serif="http://www.serif.com/" style="fill-rule:evenodd;clip-rule:evenodd;stroke-linecap:round;stroke-linejoin:round;stroke-miterlimit:3;">
    <g transform="matrix(1,0,0,1,-944.569,-1129.67)">
        <g id="Statistics-Icons" serif:id="Statistics Icons" transform="matrix(1.67374,0,0,1.83528,522.984,-499.437)">
            <rect x="0" y="621.444" width="800" height="482.213" style="fill:none;"/>
            <g id="Silver">
            </g>
            <g id="Silver1" serif:id="Silver">
            </g>
            <g transform="matrix(0.985267,0,0,1.05367,-269.35,163.356)">
                <g transform="matrix(0.638945,0,0,0.544875,-334.157,272.131)">
                    <path d="M1362.65,785.66C1359.59,784.251 1357.46,781.154 1357.46,777.562C1357.46,772.647 1361.45,768.656 1366.36,768.656C1371.28,768.656 1375.27,772.647 1375.27,777.562C1375.27,781.154 1373.14,784.251 1370.07,785.66C1369.38,787.812 1369.03,790.102 1369.03,792.55L1363.7,792.55C1363.7,790.102 1363.34,787.812 1362.65,785.66Z" style="fill:none;stroke:rgb(75,88,104);stroke-width:1.9px;"/>
                </g>
                <g transform="matrix(0.506177,0,0,0.544875,-152.676,272.242)">
                    <path d="M1363.38,794.888L1369.07,794.888" style="fill:none;stroke:rgb(75,88,104);stroke-width:2.1px;"/>
                </g>
                <g transform="matrix(0.253088,0,0,0.272437,193.09,490.185)">
                    <path d="M1363.38,794.888L1369.07,794.888" style="fill:none;stroke:rgb(75,88,104);stroke-width:4.21px;"/>
                </g>
                <g transform="matrix(1.54972e-17,0.215827,-0.319472,1.6682e-17,792.817,393.673)">
                    <path d="M1363.38,794.888L1369.07,794.888" style="fill:none;stroke:rgb(75,88,104);stroke-width:4.21px;"/>
                </g>
                <g transform="matrix(-0.253088,2.64312e-17,-3.91241e-17,-0.272437,893.166,912.362)">
                    <path d="M1363.38,794.888L1369.07,794.888" style="fill:none;stroke:rgb(75,88,104);stroke-width:4.21px;"/>
                </g>
                <g transform="matrix(0.253088,-3.08149e-33,0,0.272437,184.58,479.248)">
                    <path d="M1363.38,794.888L1369.07,794.888" style="fill:none;stroke:rgb(75,88,104);stroke-width:4.21px;"/>
                </g>
                <g transform="matrix(0.178961,0.152613,-0.225901,0.192642,467.916,329.036)">
                    <path d="M1363.38,794.888L1369.07,794.888" style="fill:none;stroke:rgb(75,88,104);stroke-width:4.21px;"/>
                </g>
                <g transform="matrix(-0.178961,0.152613,-0.225901,-0.192642,968.962,635.294)">
                    <path d="M1363.38,794.888L1369.07,794.888" style="fill:none;stroke:rgb(75,88,104);stroke-width:4.21px;"/>
                </g>
                <g transform="matrix(-0.178961,-0.152613,0.225901,-0.192642,609.83,1062.57)">
                    <path d="M1363.38,794.888L1369.07,794.888" style="fill:none;stroke:rgb(75,88,104);stroke-width:4.21px;"/>
                </g>
                <g transform="matrix(0.178961,-0.152613,0.225901,0.192642,108.784,756.315)">
                    <path d="M1363.38,794.888L1369.07,794.888" style="fill:none;stroke:rgb(75,88,104);stroke-width:4.21px;"/>
                </g>
                <g transform="matrix(0.437599,0,0,0.373173,52.683,348.997)">
                    <path d="M1109.97,934.357C1109.96,934.076 1109.96,933.865 1109.96,933.724C1109.96,932.896 1110.08,932.181 1110.31,931.58C1110.49,931.127 1110.76,930.67 1111.14,930.209C1111.43,929.873 1111.93,929.383 1112.66,928.738C1113.39,928.093 1113.87,927.58 1114.09,927.197C1114.31,926.814 1114.41,926.396 1114.41,925.943C1114.41,925.123 1114.09,924.402 1113.45,923.781C1112.81,923.16 1112.03,922.849 1111.1,922.849C1110.2,922.849 1109.45,923.131 1108.85,923.693C1108.25,924.256 1107.85,925.134 1107.66,926.33L1105.5,926.072C1105.69,924.47 1106.27,923.244 1107.24,922.392C1108.2,921.541 1109.48,921.115 1111.06,921.115C1112.74,921.115 1114.08,921.572 1115.08,922.486C1116.08,923.4 1116.58,924.506 1116.58,925.802C1116.58,926.552 1116.41,927.244 1116.06,927.877C1115.7,928.509 1115.02,929.279 1113.99,930.185C1113.31,930.795 1112.86,931.244 1112.64,931.533C1112.43,931.822 1112.28,932.154 1112.18,932.529C1112.08,932.904 1112.02,933.513 1112,934.357L1109.97,934.357ZM1109.84,938.588L1109.84,936.185L1112.25,936.185L1112.25,938.588L1109.84,938.588Z" style="fill:rgb(75,88,104);fill-rule:nonzero;stroke:rgb(75,88,104);stroke-width:0.9px;"/>
                </g>
            </g>
        </g>
    </g>
</svg>
