<?xml version="1.0" encoding="UTF-8" standalone="no"?>
<!DOCTYPE svg PUBLIC "-//W3C//DTD SVG 1.1//EN" "http://www.w3.org/Graphics/SVG/1.1/DTD/svg11.dtd">
<svg width="100%" height="100%" viewBox="0 0 54 54" version="1.1" xmlns="http://www.w3.org/2000/svg" xmlns:xlink="http://www.w3.org/1999/xlink" xml:space="preserve" xmlns:serif="http://www.serif.com/" style="fill-rule:evenodd;clip-rule:evenodd;stroke-linejoin:round;stroke-miterlimit:2;">
    <g transform="matrix(1,0,0,1,-1.583,-1.583)">
        <g transform="matrix(1,0,0,1,-2541.76,-1575.22)">
            <g>
                <circle cx="2569.99" cy="1603.45" r="26.643" style="fill:none;"/>
                <g transform="matrix(1.33333,0,0,1.33333,-1057.84,-674.193)">
                    <g id="Annotation-Coins" serif:id="Annotation Coins">
                        <g transform="matrix(1.97313,0,0,1.55263,-2177.18,-946.874)">
                            <ellipse cx="2482.38" cy="1710.07" rx="5.702" ry="7.246" style="fill:rgb(252,231,220);"/>
                            <path d="M2482.38,1702.83C2485.52,1702.83 2488.08,1706.07 2488.08,1710.07C2488.08,1714.07 2485.52,1717.32 2482.38,1717.32C2479.23,1717.32 2476.67,1714.07 2476.67,1710.07C2476.67,1706.07 2479.23,1702.83 2482.38,1702.83ZM2482.38,1703.07C2485.42,1703.07 2487.89,1706.21 2487.89,1710.07C2487.89,1713.94 2485.42,1717.08 2482.38,1717.08C2479.33,1717.08 2476.86,1713.94 2476.86,1710.07C2476.86,1706.21 2479.33,1703.07 2482.38,1703.07Z" style="fill:rgb(240,124,65);"/>
                        </g>
                        <g transform="matrix(18,0,0,18,2714.06,1714.53)">
                            <g>
                                <path d="M0.472,-0.667L0.421,-0.609L0.501,-0.396L0.521,-0.407L0.449,-0.599L0.5,-0.659L0.513,-0.653L0.464,-0.596L0.532,-0.414C0.536,-0.417 0.538,-0.419 0.539,-0.419L0.555,-0.433C0.565,-0.441 0.571,-0.446 0.574,-0.45C0.582,-0.413 0.595,-0.379 0.613,-0.35C0.603,-0.351 0.597,-0.351 0.592,-0.351C0.561,-0.351 0.539,-0.346 0.524,-0.336L0.613,-0.097L0.686,-0.04L0.439,-0.04L0.507,-0.097L0.453,-0.239C0.417,-0.203 0.389,-0.169 0.37,-0.136L0.359,-0.139C0.378,-0.171 0.407,-0.207 0.445,-0.246L0.449,-0.251L0.439,-0.272C0.401,-0.24 0.369,-0.203 0.343,-0.16L0.334,-0.174C0.318,-0.201 0.296,-0.232 0.27,-0.267L0.265,-0.272C0.24,-0.217 0.227,-0.172 0.227,-0.137C0.227,-0.116 0.231,-0.099 0.238,-0.085C0.245,-0.071 0.261,-0.047 0.288,-0.014C0.29,-0.011 0.294,-0.006 0.299,-0L0.035,-0L0.025,-0.013L0.274,-0.013L0.266,-0.023C0.244,-0.049 0.23,-0.07 0.223,-0.084C0.217,-0.099 0.213,-0.116 0.213,-0.135C0.213,-0.168 0.227,-0.218 0.254,-0.284L0.232,-0.306C0.228,-0.296 0.223,-0.28 0.216,-0.26L0.2,-0.21C0.191,-0.184 0.187,-0.162 0.187,-0.144C0.187,-0.126 0.19,-0.111 0.196,-0.099C0.202,-0.087 0.215,-0.07 0.235,-0.049C0.237,-0.047 0.24,-0.044 0.244,-0.04L0,-0.04C0.047,-0.064 0.083,-0.097 0.111,-0.137C0.138,-0.178 0.165,-0.241 0.191,-0.326L0.193,-0.333C0.176,-0.347 0.151,-0.356 0.119,-0.359C0.137,-0.386 0.15,-0.414 0.16,-0.443L0.19,-0.415C0.198,-0.407 0.207,-0.4 0.217,-0.393L0.226,-0.414L0.22,-0.419C0.204,-0.433 0.19,-0.445 0.179,-0.454L0.175,-0.457L0.183,-0.468C0.2,-0.456 0.216,-0.443 0.232,-0.428L0.299,-0.611L0.247,-0.667L0.472,-0.667ZM0.352,-0.51L0.298,-0.368C0.301,-0.365 0.302,-0.363 0.303,-0.362L0.323,-0.34C0.333,-0.328 0.347,-0.31 0.364,-0.285L0.369,-0.278C0.383,-0.295 0.399,-0.313 0.418,-0.33L0.352,-0.51ZM0.33,-0.566L0.252,-0.361C0.277,-0.336 0.298,-0.311 0.316,-0.286L0.338,-0.255C0.339,-0.255 0.34,-0.252 0.343,-0.249C0.346,-0.251 0.348,-0.253 0.348,-0.254L0.36,-0.269C0.338,-0.304 0.311,-0.335 0.281,-0.364L0.343,-0.529L0.33,-0.566ZM0.617,-0.426C0.624,-0.397 0.642,-0.357 0.67,-0.306C0.663,-0.307 0.659,-0.307 0.658,-0.307L0.619,-0.311C0.601,-0.312 0.588,-0.313 0.58,-0.313L0.57,-0.313L0.651,-0.096L0.76,-0L0.478,-0L0.468,-0.013L0.728,-0.013L0.64,-0.091L0.553,-0.321C0.564,-0.324 0.576,-0.325 0.591,-0.325C0.608,-0.325 0.628,-0.324 0.649,-0.321L0.644,-0.332C0.623,-0.37 0.609,-0.405 0.602,-0.436L0.617,-0.426Z" style="fill:rgb(240,124,65);fill-rule:nonzero;"/>
                            </g>
                        </g>
                    </g>
                </g>
            </g>
        </g>
    </g>
</svg>
