<?xml version="1.0" encoding="UTF-8" standalone="no"?>
<!DOCTYPE svg PUBLIC "-//W3C//DTD SVG 1.1//EN" "http://www.w3.org/Graphics/SVG/1.1/DTD/svg11.dtd">
<svg width="100%" height="100%" viewBox="0 0 56 56" version="1.1" xmlns="http://www.w3.org/2000/svg" xmlns:xlink="http://www.w3.org/1999/xlink" xml:space="preserve" xmlns:serif="http://www.serif.com/" style="fill-rule:evenodd;clip-rule:evenodd;stroke-linejoin:round;stroke-miterlimit:2;">
    <g transform="matrix(1,0,0,1,-395.424,-2221.43)">
        <g transform="matrix(1,0,0,1,0,2209.07)">
            <g id="Energy-DARK" serif:id="Energy DARK" transform="matrix(1,0,0,1,-987.14,-168.376)">
                <g transform="matrix(0.85043,0,0,0.86808,-400.365,-1149.71)">
                    <ellipse cx="2128.93" cy="1564.47" rx="29.71" ry="29.174" style="fill:rgb(26,26,26);"/>
                </g>
                <g transform="matrix(0.10949,0,0,0.10949,1131.03,96.1366)">
                    <path d="M2534.48,884.748L2621.65,884.748L2572.81,979.677L2609.48,979.677L2559.43,1058.79L2594.26,1058.79L2504.81,1181.4L2531.43,1093.32L2489.6,1093.32L2525.35,1014.97L2476.21,1014.97L2534.48,884.748Z" style="fill:rgb(240,124,65);"/>
                </g>
                <g id="Ring" transform="matrix(0.90532,0,0,0.90532,-702.146,-964.631)">
                    <g id="Ring4" transform="matrix(0.864612,-1.2374e-18,-5.40466e-18,0.864612,-1225.56,736.216)">
                        <path d="M4116.09,682.38C4125.45,682.38 4134.43,678.66 4141.06,672.038L4138.35,669.33C4132.44,675.234 4124.44,678.55 4116.09,678.55L4116.09,682.38Z" style="fill:rgb(246,174,137);"/>
                    </g>
                    <g id="Ring3" transform="matrix(0.864612,-1.2374e-18,-5.40466e-18,0.864612,-1225.56,736.216)">
                        <path d="M4141.06,672.038C4147.68,665.416 4151.4,656.435 4151.4,647.07L4147.57,647.07C4147.57,655.419 4144.25,663.426 4138.35,669.33L4141.06,672.038Z" style="fill:rgb(248,190,160);"/>
                    </g>
                    <g id="Ring2" transform="matrix(0.864612,-1.2374e-18,-5.40466e-18,0.864612,-1225.56,736.216)">
                        <path d="M4151.4,647.07C4151.4,637.706 4147.68,628.725 4141.06,622.103L4138.35,624.811C4144.25,630.714 4147.57,638.721 4147.57,647.07L4151.4,647.07Z" style="fill:rgb(249,206,184);"/>
                    </g>
                    <g id="Ring1" transform="matrix(0.864612,-1.2374e-18,-5.40466e-18,0.864612,-1225.56,736.216)">
                        <path d="M4141.06,622.103C4134.43,615.481 4125.45,611.761 4116.09,611.761L4116.09,615.591C4124.44,615.591 4132.44,618.907 4138.35,624.811L4141.06,622.103Z" style="fill:rgb(251,222,208);"/>
                    </g>
                    <g transform="matrix(1.02517,0,0,1.04645,150.677,-341.452)">
                        <ellipse cx="2128.93" cy="1564.47" rx="29.71" ry="29.174" style="fill:none;"/>
                    </g>
                </g>
            </g>
        </g>
    </g>
</svg>
