<?xml version="1.0" encoding="UTF-8" standalone="no"?>
<!DOCTYPE svg PUBLIC "-//W3C//DTD SVG 1.1//EN" "http://www.w3.org/Graphics/SVG/1.1/DTD/svg11.dtd">
<svg width="100%" height="100%" viewBox="0 0 46 39" version="1.1" xmlns="http://www.w3.org/2000/svg" xmlns:xlink="http://www.w3.org/1999/xlink" xml:space="preserve" xmlns:serif="http://www.serif.com/" style="fill-rule:evenodd;clip-rule:evenodd;stroke-linecap:round;stroke-miterlimit:3;">
    <g transform="matrix(1,0,0,1,-657.547,-262.555)">
        <g id="Image-Icon" serif:id="Image Icon" transform="matrix(0.974189,0,0,0.974189,-799.773,178.095)">
            <g transform="matrix(0.278784,0,0,0.279681,950.522,-230.669)">
                <path d="M2006.37,1263.8C2006.37,1263.8 2009.96,1227.34 2044.32,1212C2077.96,1196.97 2113.18,1210.73 2113.18,1210.73L2113.18,1157.97C2113.18,1151.56 2107.95,1146.35 2101.52,1146.35L1979.69,1146.35C1973.26,1146.35 1968.03,1151.56 1968.03,1157.97L1968.03,1252.18C1968.03,1258.59 1973.26,1263.8 1979.69,1263.8L2101.52,1263.8C2107.95,1263.8 2113.18,1258.59 2113.18,1252.18L2113.18,1229.05" style="fill:none;stroke:rgb(75,88,104);stroke-width:7.35px;"/>
            </g>
            <g transform="matrix(0.286437,0,0,0.286437,935.294,-239.404)">
                <path d="M2008.19,1170.27C2018.37,1170.27 2026.63,1178.53 2026.63,1188.71C2026.63,1198.89 2018.37,1207.15 2008.19,1207.15C1998.02,1207.15 1989.76,1198.89 1989.76,1188.71C1989.76,1178.53 1998.02,1170.27 2008.19,1170.27ZM2008.19,1177.44C2014.42,1177.44 2019.47,1182.49 2019.47,1188.71C2019.47,1194.93 2014.42,1199.98 2008.19,1199.98C2001.97,1199.98 1996.92,1194.93 1996.92,1188.71C1996.92,1182.49 2001.97,1177.44 2008.19,1177.44Z" style="fill:rgb(75,88,104);"/>
            </g>
        </g>
    </g>
</svg>
