<?xml version="1.0" encoding="UTF-8" standalone="no"?>
<!DOCTYPE svg PUBLIC "-//W3C//DTD SVG 1.1//EN" "http://www.w3.org/Graphics/SVG/1.1/DTD/svg11.dtd">
<svg width="100%" height="100%" viewBox="0 0 56 41" version="1.1" xmlns="http://www.w3.org/2000/svg" xmlns:xlink="http://www.w3.org/1999/xlink" xml:space="preserve" xmlns:serif="http://www.serif.com/" style="fill-rule:evenodd;clip-rule:evenodd;stroke-linecap:round;stroke-miterlimit:3;">
    <g transform="matrix(1,0,0,1,-1058.8,-807.89)">
        <g transform="matrix(1.67374,0,0,1.83528,522.984,-499.437)">
            <g transform="matrix(0.935081,0,0,0.671938,87.257,283.019)">
                <g transform="matrix(0.184335,0,0,0.234697,-111.713,372.432)">
                    <path d="M2006.37,1263.8C2006.37,1263.8 2009.96,1227.34 2044.32,1212C2077.96,1196.97 2113.18,1210.73 2113.18,1210.73L2113.18,1157.97C2113.18,1151.56 2107.95,1146.35 2101.52,1146.35L1979.69,1146.35C1973.26,1146.35 1968.03,1151.56 1968.03,1157.97L1968.03,1252.18C1968.03,1258.59 1973.26,1263.8 1979.69,1263.8L2101.52,1263.8C2107.95,1263.8 2113.18,1258.59 2113.18,1252.18L2113.18,1229.05" style="fill:none;stroke:rgb(75,88,104);stroke-width:6.92px;"/>
                </g>
                <g transform="matrix(0.184335,0,0,0.234697,-116.222,370.723)">
                    <path d="M2098.57,1235.12C2118.67,1257.15 2113.71,1252.39 2118.78,1258.05C2123.62,1252.66 2135.93,1238.29 2146.16,1226.31C2154.72,1216.26 2161.82,1207.9 2161.82,1207.9" style="fill:none;stroke:rgb(75,88,104);stroke-width:6.92px;"/>
                </g>
                <g transform="matrix(0.189395,0,0,0.240366,-121.782,365.102)">
                    <path d="M2008.19,1170.27C2018.37,1170.27 2026.63,1178.53 2026.63,1188.71C2026.63,1198.89 2018.37,1207.15 2008.19,1207.15C1998.02,1207.15 1989.76,1198.89 1989.76,1188.71C1989.76,1178.53 1998.02,1170.27 2008.19,1170.27ZM2008.19,1177.02C2014.65,1177.02 2019.89,1182.26 2019.89,1188.71C2019.89,1195.16 2014.65,1200.4 2008.19,1200.4C2001.74,1200.4 1996.5,1195.16 1996.5,1188.71C1996.5,1182.26 2001.74,1177.02 2008.19,1177.02Z" style="fill:rgb(75,88,104);"/>
                </g>
            </g>
        </g>
    </g>
</svg>
