<?xml version="1.0" encoding="UTF-8" standalone="no"?>
<!DOCTYPE svg PUBLIC "-//W3C//DTD SVG 1.1//EN" "http://www.w3.org/Graphics/SVG/1.1/DTD/svg11.dtd">
<svg width="100%" height="100%" viewBox="0 0 45 45" version="1.1" xmlns="http://www.w3.org/2000/svg" xmlns:xlink="http://www.w3.org/1999/xlink" xml:space="preserve" xmlns:serif="http://www.serif.com/" style="fill-rule:evenodd;clip-rule:evenodd;stroke-linecap:round;stroke-linejoin:round;stroke-miterlimit:3;">
    <g transform="matrix(1,0,0,1,-2000.18,-1177.32)">
        <g id="Shop-Icon_1" serif:id="Shop Icon_1" transform="matrix(0.992935,0,0,1.02261,70.0019,-7.56875)">
            <rect x="1943.91" y="1158.69" width="45.32" height="44.005" style="fill:none;"/>
            <g transform="matrix(1.38537,0,0,1.475,942.584,-11.2237)">
                <g transform="matrix(0.620961,0,0,0.566302,-241.401,308.403)">
                    <circle cx="1579.07" cy="882.353" r="25.756" style="fill:rgb(48,48,48);"/>
                </g>
                <g transform="matrix(-1.12842,0,0,1.12842,1451.65,50.4819)">
                    <g transform="matrix(0.458288,0,0,0.417948,-86.5363,368.273)">
                        <circle cx="1562.07" cy="742.03" r="3.546" style="fill:none;stroke:white;stroke-width:2.81px;"/>
                    </g>
                    <g transform="matrix(0.458288,0,0,0.417948,-79.3251,368.273)">
                        <circle cx="1562.07" cy="742.03" r="3.546" style="fill:none;stroke:white;stroke-width:2.81px;"/>
                    </g>
                    <g transform="matrix(0.597465,0,0,0.544875,-286.682,273.598)">
                        <path d="M1519.53,717.987C1519.53,717.987 1518.7,717.987 1521.42,717.987C1523.3,717.987 1524.07,719.696 1524.47,721.25C1525.43,725.028 1527.41,732.623 1528.5,736.505C1529.15,738.79 1530.41,740.214 1532.3,740.214L1545.25,740.214" style="fill:none;stroke:white;stroke-width:2.16px;"/>
                    </g>
                    <g transform="matrix(0.597465,0,0,0.544875,-286.682,273.598)">
                        <path d="M1528.06,734.927L1547.92,734.927L1551.33,722.466L1525.03,722.466" style="fill:none;stroke:white;stroke-width:2.16px;"/>
                    </g>
                    <g transform="matrix(-0.603541,0,0,0.550415,1689.08,139.417)">
                        <path d="M1746.17,958.975L1747.57,971.31" style="fill:none;stroke:white;stroke-width:2.13px;"/>
                    </g>
                    <g transform="matrix(-0.603541,0,0,0.550415,1689.38,139.417)">
                        <path d="M1755.91,958.975L1754.55,971.31" style="fill:none;stroke:white;stroke-width:2.13px;"/>
                    </g>
                    <g transform="matrix(-0.603541,0,0,0.550415,1689.38,139.417)">
                        <path d="M1740.07,965.143L1763.02,965.143" style="fill:none;stroke:white;stroke-width:2.13px;"/>
                    </g>
                </g>
            </g>
        </g>
    </g>
</svg>
