<?xml version="1.0" encoding="UTF-8" standalone="no"?><!DOCTYPE svg PUBLIC "-//W3C//DTD SVG 1.1//EN" "http://www.w3.org/Graphics/SVG/1.1/DTD/svg11.dtd"><svg width="100%" height="100%" viewBox="0 0 101 84" version="1.1" xmlns="http://www.w3.org/2000/svg" xmlns:xlink="http://www.w3.org/1999/xlink" xml:space="preserve" xmlns:serif="http://www.serif.com/" style="fill-rule:evenodd;clip-rule:evenodd;stroke-linecap:round;stroke-miterlimit:3;"><rect id="Statistics-Icons" serif:id="Statistics Icons" x="-716.841" y="-276.683" width="2789.56" height="1843.74" style="fill:none;"/><g><path d="M29.631,77.406c-0,-0 2.16,-21.986 22.807,-31.235c20.223,-9.059 41.389,-0.762 41.389,-0.762l0,-31.813c0,-3.868 -3.14,-7.008 -7.008,-7.008l-73.223,0c-3.868,0 -7.008,3.14 -7.008,7.008l0,56.802c0,3.868 3.14,7.008 7.008,7.008l73.223,-0c3.868,-0 7.008,-3.14 7.008,-7.008l0,-13.942" style="fill:none;stroke:#4b5868;stroke-width:4.17px;"/><path d="M31.03,19.222c6.285,0 11.387,5.103 11.387,11.388c0,6.285 -5.102,11.387 -11.387,11.387c-6.285,-0 -11.387,-5.102 -11.387,-11.387c-0,-6.285 5.102,-11.388 11.387,-11.388Zm-0,4.167c3.985,0 7.22,3.236 7.22,7.221c0,3.985 -3.235,7.22 -7.22,7.22c-3.985,0 -7.221,-3.235 -7.221,-7.22c0,-3.985 3.236,-7.221 7.221,-7.221Z" style="fill:#4b5868;"/></g><g id="Silver"></g><g id="Silver1" serif:id="Silver"></g></svg>