<?xml version="1.0" encoding="UTF-8" standalone="no"?><!DOCTYPE svg PUBLIC "-//W3C//DTD SVG 1.1//EN" "http://www.w3.org/Graphics/SVG/1.1/DTD/svg11.dtd"><svg width="100%" height="100%" viewBox="0 0 75 75" version="1.1" xmlns="http://www.w3.org/2000/svg" xmlns:xlink="http://www.w3.org/1999/xlink" xml:space="preserve" xmlns:serif="http://www.serif.com/" style="fill-rule:evenodd;clip-rule:evenodd;stroke-linecap:round;stroke-linejoin:round;stroke-miterlimit:3;"><rect id="Statistics-Icons" serif:id="Statistics Icons" x="-729.788" y="-1236.95" width="2789.56" height="1843.74" style="fill:none;"/><g><g id="pokal"><path d="M14.481,8.851l0.134,2.414l-9.955,0c0.809,11.378 7.296,21.171 16.659,26.377l1.219,2.328l1.335,1.69c-12.018,-5.021 -20.667,-16.64 -21.579,-30.395l-1.252,0l-0,-2.414l13.439,-0Z" style="fill:#4b5868;stroke:#4b5868;stroke-width:2.08px;"/><path d="M60.041,8.851l-0.134,2.414l9.955,0c-0.809,11.378 -7.296,21.171 -16.659,26.377l-1.219,2.328l-1.335,1.69c12.018,-5.021 20.666,-16.64 21.579,-30.395l1.252,0l0,-2.414l-13.439,-0Z" style="fill:#4b5868;stroke:#4b5868;stroke-width:2.08px;"/><path d="M19.803,68.539c8.355,0 14.586,-4.871 14.927,-19.516c-6.735,-1.115 -11.663,-6.686 -14.992,-14.401c-3.53,-8.182 -5.26,-18.776 -5.437,-29.022l-0.785,-0c-0.97,-0 -1.758,-0.788 -1.758,-1.758c-0,-0.971 0.788,-1.759 1.758,-1.759l47.49,0c0.97,0 1.758,0.788 1.758,1.759c0,0.97 -0.788,1.758 -1.758,1.758l-0.785,-0c-0.177,10.246 -1.907,20.84 -5.437,29.022c-3.329,7.715 -8.257,13.286 -14.992,14.401c0.341,14.645 6.572,19.516 14.927,19.516l0.847,0c0.602,0 1.09,0.489 1.09,1.091l0,2.181c0,0.602 -0.488,1.09 -1.09,1.09l-36.61,0c-0.602,0 -1.09,-0.488 -1.09,-1.09l-0,-2.181c-0,-0.602 0.488,-1.091 1.09,-1.091l0.847,0Z" style="fill:none;stroke:#4b5868;stroke-width:4.17px;"/></g></g><g id="Silver"></g><g id="Silver1" serif:id="Silver"></g></svg>