<?xml version="1.0" encoding="UTF-8" standalone="no"?><!DOCTYPE svg PUBLIC "-//W3C//DTD SVG 1.1//EN" "http://www.w3.org/Graphics/SVG/1.1/DTD/svg11.dtd"><svg width="100%" height="100%" viewBox="0 0 73 80" version="1.1" xmlns="http://www.w3.org/2000/svg" xmlns:xlink="http://www.w3.org/1999/xlink" xml:space="preserve" xmlns:serif="http://www.serif.com/" style="fill-rule:evenodd;clip-rule:evenodd;stroke-linecap:round;stroke-linejoin:round;stroke-miterlimit:3;"><rect id="Statistics-Icons" serif:id="Statistics Icons" x="-730.997" y="-1338.69" width="2789.56" height="1843.74" style="fill:none;"/><g id="Silver"></g><g id="Silver1" serif:id="Silver"></g><g><path d="M42.374,28.796l0,-26.713" style="fill:none;stroke:#4b5868;stroke-width:4.17px;"/><circle cx="30.629" cy="71.254" r="5.666" style="fill:none;stroke:#4b5868;stroke-width:4.17px;"/><circle cx="55.774" cy="71.254" r="5.666" style="fill:none;stroke:#4b5868;stroke-width:4.17px;"/><path d="M2.083,13.635c0,0 -0.028,0.038 5.63,0.038c3.917,0 5.528,3.56 6.353,6.798c2.004,7.871 6.123,23.694 8.403,31.781c1.343,4.761 3.977,7.727 7.908,7.727l32.554,0" style="fill:none;stroke:#4b5868;stroke-width:4.17px;"/><path d="M21.556,48.964l41.375,-0l7.089,-25.96l-12.808,0" style="fill:none;stroke:#4b5868;stroke-width:4.17px;"/><path d="M27.879,23.004l-13.15,0" style="fill:none;stroke:#4b5868;stroke-width:4.17px;"/><path d="M51.057,19.391l-8.683,9.405l-8.682,-9.405" style="fill:none;stroke:#4b5868;stroke-width:4.17px;"/></g></svg>