<?xml version="1.0" encoding="UTF-8" standalone="no"?><!DOCTYPE svg PUBLIC "-//W3C//DTD SVG 1.1//EN" "http://www.w3.org/Graphics/SVG/1.1/DTD/svg11.dtd"><svg width="100%" height="100%" viewBox="0 0 76 75" version="1.1" xmlns="http://www.w3.org/2000/svg" xmlns:xlink="http://www.w3.org/1999/xlink" xml:space="preserve" xmlns:serif="http://www.serif.com/" style="fill-rule:evenodd;clip-rule:evenodd;stroke-linecap:round;stroke-linejoin:round;stroke-miterlimit:3;"><rect id="Statistics-Icons" serif:id="Statistics Icons" x="-729.403" y="-1440.85" width="2789.56" height="1843.74" style="fill:none;"/><g><g><path d="M19.865,35.485l-0,-0.88c0.007,-0.451 0.113,-0.892 0.31,-1.321c-0.204,-0.443 -0.311,-0.901 -0.311,-1.369l0.001,-5.726c0.007,-0.451 0.113,-0.893 0.31,-1.322c-0.204,-0.443 -0.311,-0.901 -0.311,-1.369l0.001,-5.726c0.007,-0.451 0.113,-0.893 0.31,-1.321c-0.204,-0.444 -0.311,-0.901 -0.311,-1.369l0.001,-5.727c0.062,-4.017 8.005,-7.272 17.78,-7.272c9.776,0 17.719,3.255 17.781,7.272l0,5.727c0,0.468 -0.106,0.925 -0.311,1.369c0.198,0.428 0.304,0.87 0.311,1.321l0,1.145" style="fill:none;stroke:#4b5868;stroke-width:4.17px;"/></g><g><path d="M37.956,33.284c-0.204,-0.443 -0.311,-0.901 -0.311,-1.369l0.001,-5.726c0.062,-4.018 8.005,-7.272 17.78,-7.272c9.776,-0 17.719,3.254 17.781,7.272l0,5.726c0,0.468 -0.106,0.926 -0.311,1.369c0.198,0.429 0.304,0.87 0.311,1.321l0,5.727c0,0.468 -0.106,0.925 -0.311,1.369c0.198,0.428 0.304,0.87 0.311,1.321l0,5.726c0,0.468 -0.106,0.926 -0.311,1.369c0.198,0.429 0.304,0.87 0.311,1.322l0,5.726c0,0.468 -0.106,0.925 -0.311,1.369c0.198,0.429 0.304,0.87 0.311,1.321l0,5.727c0,4.039 -7.967,7.319 -17.781,7.319c-9.813,0 -17.781,-3.28 -17.781,-7.319l0.001,-5.727c0.007,-0.451 0.113,-0.892 0.31,-1.321c-0.204,-0.444 -0.311,-0.901 -0.311,-1.369l0.001,-5.726c0.007,-0.452 0.113,-0.893 0.31,-1.322c-0.204,-0.443 -0.311,-0.901 -0.311,-1.369l0.001,-5.726c0.007,-0.451 0.113,-0.893 0.31,-1.321c-0.204,-0.444 -0.311,-0.901 -0.311,-1.369l0.001,-5.727c0.007,-0.451 0.113,-0.892 0.31,-1.321Z" style="fill:none;stroke:#4b5868;stroke-width:4.17px;"/></g><g><path d="M2.394,50.117c-0.204,-0.443 -0.311,-0.901 -0.311,-1.369l0.001,-5.726c0.062,-4.018 8.005,-7.272 17.78,-7.272c9.776,-0 17.719,3.254 17.781,7.272l0,5.726c0,0.468 -0.106,0.926 -0.311,1.369c0.198,0.429 0.304,0.87 0.311,1.322l0,5.726c0,0.468 -0.106,0.925 -0.311,1.369c0.198,0.429 0.304,0.87 0.311,1.321l0,5.727c0,4.039 -7.967,7.319 -17.781,7.319c-9.813,0 -17.781,-3.28 -17.781,-7.319l0.001,-5.727c0.007,-0.451 0.113,-0.892 0.31,-1.321c-0.204,-0.444 -0.311,-0.901 -0.311,-1.369l0.001,-5.726c0.007,-0.452 0.113,-0.893 0.31,-1.322Z" style="fill:none;stroke:#4b5868;stroke-width:4.17px;"/></g><path d="M73.207,57.165c0,4.04 -7.967,7.32 -17.781,7.32c-9.813,-0 -17.781,-3.28 -17.781,-7.32" style="fill:none;stroke:#4b5868;stroke-width:4.17px;"/><path d="M37.645,57.165c0,4.04 -7.967,7.32 -17.781,7.32c-9.813,-0 -17.781,-3.28 -17.781,-7.32" style="fill:none;stroke:#4b5868;stroke-width:4.17px;"/><path d="M73.207,48.748c0,4.04 -7.967,7.32 -17.781,7.32c-9.813,-0 -17.781,-3.28 -17.781,-7.32" style="fill:none;stroke:#4b5868;stroke-width:4.17px;"/><path d="M37.645,48.748c0,4.04 -7.967,7.32 -17.781,7.32c-9.813,-0 -17.781,-3.28 -17.781,-7.32" style="fill:none;stroke:#4b5868;stroke-width:4.17px;"/><path d="M73.207,40.332c0,4.039 -7.967,7.319 -17.781,7.319c-9.813,0 -17.781,-3.28 -17.781,-7.319" style="fill:none;stroke:#4b5868;stroke-width:4.17px;"/><path d="M37.645,30.818c-9.813,-0 -17.781,-3.28 -17.781,-7.32" style="fill:none;stroke:#4b5868;stroke-width:4.17px;"/><path d="M36.35,43.078c-2.641,2.68 -9.031,4.573 -16.486,4.573c-6.938,0 -12.954,-1.639 -15.883,-4.028" style="fill:none;stroke:#4b5868;stroke-width:4.17px;"/><path d="M73.207,31.915c0,4.04 -7.967,7.32 -17.781,7.32c-9.813,-0 -17.781,-3.28 -17.781,-7.32" style="fill:none;stroke:#4b5868;stroke-width:4.17px;"/><path d="M55.426,15.082c0,1.171 -0.669,2.278 -1.858,3.259" style="fill:none;stroke:#4b5868;stroke-width:4.17px;"/><path d="M40.495,22.248c-1.465,0.161 -1.263,0.153 -2.85,0.153c-9.813,0 -17.781,-3.279 -17.781,-7.319" style="fill:none;stroke:#4b5868;stroke-width:4.17px;"/><path d="M71.912,26.244c-2.641,2.681 -9.03,4.574 -16.486,4.574c-7.832,-0 -14.489,-2.089 -16.857,-4.987" style="fill:none;stroke:#4b5868;stroke-width:4.17px;"/><path d="M54.497,9.005c-2.373,2.894 -9.025,4.98 -16.852,4.98c-8.05,-0 -14.859,-2.208 -17.045,-5.231" style="fill:none;stroke:#4b5868;stroke-width:4.17px;"/></g><g id="Silver"></g><g id="Silver1" serif:id="Silver"></g></svg>