<?xml version="1.0" encoding="UTF-8" standalone="no"?><!DOCTYPE svg PUBLIC "-//W3C//DTD SVG 1.1//EN" "http://www.w3.org/Graphics/SVG/1.1/DTD/svg11.dtd"><svg width="100%" height="100%" viewBox="0 0 73 85" version="1.1" xmlns="http://www.w3.org/2000/svg" xmlns:xlink="http://www.w3.org/1999/xlink" xml:space="preserve" xmlns:serif="http://www.serif.com/" style="fill-rule:evenodd;clip-rule:evenodd;stroke-linecap:round;stroke-linejoin:round;stroke-miterlimit:3;"><rect id="Statistics-Icons" serif:id="Statistics Icons" x="-730.298" y="-1551.68" width="2789.56" height="1843.74" style="fill:none;"/><g><g><path d="M42.015,64.228c-0.17,-0.37 -0.259,-0.751 -0.259,-1.142l-0,-4.776c0.051,-3.351 6.677,-6.066 14.831,-6.066c8.153,0 14.779,2.715 14.83,6.066l0.001,4.776c-0,0.391 -0.089,0.772 -0.26,1.142c0.165,0.358 0.254,0.726 0.259,1.102l0.001,4.777c-0,0.39 -0.089,0.772 -0.26,1.141c0.165,0.358 0.254,0.726 0.259,1.103l0.001,4.776c-0,3.369 -6.646,6.105 -14.831,6.105c-8.186,0 -14.831,-2.736 -14.831,-6.105l-0,-4.776c0.006,-0.377 0.094,-0.745 0.259,-1.103c-0.17,-0.369 -0.259,-0.751 -0.259,-1.141l-0,-4.777c0.006,-0.376 0.094,-0.744 0.259,-1.102Z" style="fill:none;stroke:#4b5868;stroke-width:2.08px;"/><path d="M71.418,70.107c-0,3.369 -6.646,6.105 -14.831,6.105c-8.186,-0 -14.831,-2.736 -14.831,-6.105" style="fill:none;stroke:#4b5868;stroke-width:2.08px;"/><path d="M71.418,63.086c-0,3.37 -6.646,6.105 -14.831,6.105c-8.186,0 -14.831,-2.735 -14.831,-6.105" style="fill:none;stroke:#4b5868;stroke-width:2.08px;"/><path d="M71.015,56.98c0.968,2.806 -8.21,5.191 -14.428,5.191c-5.788,0 -16.309,-1.288 -14.6,-4.929" style="fill:none;stroke:#4b5868;stroke-width:2.08px;"/></g><g><path d="M36.131,78.632l-34.048,-0l30.822,-57.701l14.312,26.792" style="fill:none;stroke:#4b5868;stroke-width:4.17px;"/><path d="M24.65,38.433l17.106,0" style="fill:none;stroke:#4b5868;stroke-width:4.17px;"/></g><g><path d="M45.445,11.741l-12.54,2.225l0,-11.883l16.739,2.971l0,5.165l-4.199,-0.746l0,2.268Z" style="fill:none;stroke:#4b5868;stroke-width:4.17px;"/><path d="M49.644,10.219l12.54,2.225l-16.739,2.971l0,-3.674l0.014,-2.282l4.185,0.76Z" style="fill:none;stroke:#4b5868;stroke-width:4.17px;"/><path d="M45.445,9.459l4.199,-4.266" style="fill:none;stroke:#4b5868;stroke-width:4.17px;"/><path d="M32.905,13.966l0,6.965" style="fill:none;stroke:#4b5868;stroke-width:4.17px;"/></g></g><g id="Silver"></g><g id="Silver1" serif:id="Silver"></g></svg>