<?xml version="1.0" encoding="UTF-8" standalone="no"?><!DOCTYPE svg PUBLIC "-//W3C//DTD SVG 1.1//EN" "http://www.w3.org/Graphics/SVG/1.1/DTD/svg11.dtd"><svg width="100%" height="100%" viewBox="0 0 65 80" version="1.1" xmlns="http://www.w3.org/2000/svg" xmlns:xlink="http://www.w3.org/1999/xlink" xml:space="preserve" xmlns:serif="http://www.serif.com/" style="fill-rule:evenodd;clip-rule:evenodd;stroke-linecap:round;stroke-linejoin:round;stroke-miterlimit:3;"><rect id="Statistics-Icons" serif:id="Statistics Icons" x="-734.807" y="-1657.98" width="2789.56" height="1843.74" style="fill:none;"/><g id="Silver"></g><g id="Silver1" serif:id="Silver"><path d="M18.002,58.2c1.081,0.033 2.14,-0.319 3.178,-1.055c0.258,2.216 1.44,3.691 3.546,4.424c0.818,0.21 1.644,0.386 2.476,0.526c2.223,0.187 3.902,-0.679 5.039,-2.598c1.137,1.919 2.817,2.785 5.04,2.598c0.832,-0.14 1.658,-0.316 2.475,-0.526c2.106,-0.733 3.289,-2.208 3.547,-4.424c0.846,0.601 1.707,0.946 2.583,1.034l-0,18.065c-0,0.396 -0.166,0.754 -0.431,1.008c-0.45,0.333 -1.002,0.347 -1.683,-0.042l-11.828,-7.05l-11.833,7.053c-0.68,0.386 -1.23,0.371 -1.679,0.038c-0.265,-0.254 -0.43,-0.611 -0.43,-1.007l0,-18.044Z" style="fill:none;stroke:#4b5868;stroke-width:4.17px;"/><path d="M33.507,2.11c-0.844,-0.036 -1.688,-0.036 -2.531,-0c-2.213,0.279 -3.676,1.476 -4.389,3.589c-1.511,-1.64 -3.334,-2.138 -5.47,-1.494c-0.784,0.311 -1.556,0.654 -2.312,1.03c-1.907,1.155 -2.757,2.843 -2.549,5.064c-2.048,-0.884 -3.916,-0.598 -5.604,0.86c-0.591,0.603 -1.156,1.23 -1.694,1.88c-1.273,1.832 -1.362,3.72 -0.269,5.664c-2.23,0.025 -3.82,1.047 -4.77,3.065c-0.294,0.791 -0.555,1.594 -0.782,2.407c-0.418,2.191 0.268,3.952 2.057,5.283c-2.027,0.93 -3.064,2.51 -3.111,4.74c0.053,0.843 0.142,1.682 0.265,2.517c0.509,2.172 1.852,3.502 4.029,3.99c-1.474,1.674 -1.779,3.539 -0.915,5.596c0.391,0.747 0.814,1.479 1.266,2.191c1.348,1.777 3.116,2.446 5.303,2.006c-0.666,2.129 -0.185,3.957 1.441,5.484c0.661,0.524 1.344,1.021 2.047,1.488c1.955,1.074 3.842,0.966 5.661,-0.325c0.258,2.216 1.44,3.691 3.546,4.424c0.818,0.21 1.644,0.386 2.476,0.526c2.223,0.187 3.902,-0.679 5.039,-2.598c1.137,1.919 2.817,2.785 5.04,2.598c0.832,-0.14 1.658,-0.316 2.475,-0.526c2.106,-0.733 3.289,-2.208 3.547,-4.424c1.819,1.291 3.706,1.399 5.66,0.325c0.703,-0.467 1.386,-0.964 2.048,-1.488c1.626,-1.527 2.106,-3.355 1.441,-5.484c2.187,0.44 3.954,-0.229 5.303,-2.006c0.452,-0.712 0.874,-1.444 1.265,-2.191c0.865,-2.057 0.56,-3.922 -0.914,-5.596c2.176,-0.488 3.519,-1.818 4.029,-3.99c0.123,-0.835 0.211,-1.674 0.264,-2.517c-0.047,-2.23 -1.084,-3.81 -3.111,-4.74c1.79,-1.331 2.476,-3.092 2.058,-5.283c-0.227,-0.813 -0.488,-1.616 -0.782,-2.407c-0.95,-2.018 -2.54,-3.04 -4.771,-3.065c1.094,-1.944 1.004,-3.832 -0.269,-5.664c-0.538,-0.65 -1.103,-1.277 -1.693,-1.88c-1.689,-1.458 -3.557,-1.744 -5.604,-0.86c0.208,-2.221 -0.642,-3.909 -2.55,-5.064c-0.756,-0.376 -1.527,-0.719 -2.312,-1.03c-2.135,-0.644 -3.958,-0.146 -5.469,1.494c-0.713,-2.113 -2.176,-3.31 -4.389,-3.589Z" style="fill:none;stroke:#4b5868;stroke-width:4.17px;"/></g></svg>