<?xml version="1.0" encoding="UTF-8" standalone="no"?><!DOCTYPE svg PUBLIC "-//W3C//DTD SVG 1.1//EN" "http://www.w3.org/Graphics/SVG/1.1/DTD/svg11.dtd"><svg width="100%" height="100%" viewBox="0 0 96 96" version="1.1" xmlns="http://www.w3.org/2000/svg" xmlns:xlink="http://www.w3.org/1999/xlink" xml:space="preserve" xmlns:serif="http://www.serif.com/" style="fill-rule:evenodd;clip-rule:evenodd;stroke-linecap:round;stroke-linejoin:round;stroke-miterlimit:3;"><rect id="Polygon-Statistics" serif:id="Polygon Statistics" x="1.464" y="1.271" width="93.75" height="93.75" style="fill:none;"/><g><path d="M31.187,16.418l-19.452,35.7l29.577,27.756l43.631,-12.683l-3.291,-42.03l-50.465,-8.743Z" style="fill:none;stroke:#4b5868;stroke-width:4.17px;"/><path d="M36.249,13.887c0,-1.397 -1.134,-2.532 -2.531,-2.532l-5.062,0c-1.397,0 -2.532,1.135 -2.532,2.532l0,5.062c0,1.397 1.135,2.532 2.532,2.532l5.062,-0c1.397,-0 2.531,-1.135 2.531,-2.532l0,-5.062Z" style="fill:#fff;stroke:#4b5868;stroke-width:4.17px;"/><path d="M16.797,50.677c0,-1.397 -1.134,-2.531 -2.531,-2.531l-5.063,-0c-1.397,-0 -2.531,1.134 -2.531,2.531l0,5.063c0,1.397 1.134,2.531 2.531,2.531l5.063,-0c1.397,-0 2.531,-1.134 2.531,-2.531l0,-5.063Z" style="fill:#fff;stroke:#4b5868;stroke-width:4.17px;"/><path d="M46.375,77.342c-0,-1.397 -1.135,-2.531 -2.532,-2.531l-5.062,-0c-1.397,-0 -2.532,1.134 -2.532,2.531l0,5.063c0,1.397 1.135,2.531 2.532,2.531l5.062,0c1.397,0 2.532,-1.134 2.532,-2.531l-0,-5.063Z" style="fill:#fff;stroke:#4b5868;stroke-width:4.17px;"/><path d="M90.005,64.292c0,-1.397 -1.134,-2.531 -2.531,-2.531l-5.062,-0c-1.397,-0 -2.532,1.134 -2.532,2.531l0,5.062c0,1.397 1.135,2.532 2.532,2.532l5.062,-0c1.397,-0 2.531,-1.135 2.531,-2.532l0,-5.062Z" style="fill:#fff;stroke:#4b5868;stroke-width:4.17px;"/><path d="M86.319,23.326c0,-1.397 -1.134,-2.531 -2.531,-2.531l-5.062,0c-1.397,0 -2.532,1.134 -2.532,2.531l0,5.063c0,1.397 1.135,2.531 2.532,2.531l5.062,0c1.397,0 2.531,-1.134 2.531,-2.531l0,-5.063Z" style="fill:#fff;stroke:#4b5868;stroke-width:4.17px;"/></g></svg>