<?xml version="1.0" encoding="UTF-8" standalone="no"?><!DOCTYPE svg PUBLIC "-//W3C//DTD SVG 1.1//EN" "http://www.w3.org/Graphics/SVG/1.1/DTD/svg11.dtd"><svg width="100%" height="100%" viewBox="0 0 107 80" version="1.1" xmlns="http://www.w3.org/2000/svg" xmlns:xlink="http://www.w3.org/1999/xlink" xml:space="preserve" xmlns:serif="http://www.serif.com/" style="fill-rule:evenodd;clip-rule:evenodd;stroke-linecap:round;stroke-miterlimit:3;"><rect id="Statistics-Icons" serif:id="Statistics Icons" x="-710.727" y="-483.286" width="2789.56" height="1843.74" style="fill:none;"/><g><path d="M28.28,73.255c-0,-0 2.034,-20.698 21.471,-29.404c3.843,-1.722 7.722,-2.778 11.467,-3.366" style="fill:none;stroke:#4b5868;stroke-width:4.17px;"/><path d="M88.714,29.836l-0,-16.65c-0,-3.642 -2.957,-6.598 -6.598,-6.598l-68.93,0c-3.642,0 -6.598,2.956 -6.598,6.598l0,53.471c0,3.641 2.956,6.598 6.598,6.598l48.032,-0" style="fill:none;stroke:#4b5868;stroke-width:4.17px;"/><path d="M29.597,18.482c5.917,-0 10.72,4.803 10.72,10.72c-0,5.916 -4.803,10.719 -10.72,10.719c-5.916,0 -10.72,-4.803 -10.72,-10.719c0,-5.917 4.804,-10.72 10.72,-10.72Zm0,4.167c3.617,-0 6.553,2.936 6.553,6.553c0,3.616 -2.936,6.553 -6.553,6.553c-3.617,-0 -6.553,-2.937 -6.553,-6.553c0,-3.617 2.936,-6.553 6.553,-6.553Z" style="fill:#4b5868;"/><path d="M83.138,33.94c12.648,0 22.916,10.269 22.916,22.917c0,12.648 -10.268,22.916 -22.916,22.916c-12.648,0 -22.917,-10.268 -22.917,-22.916c0,-12.648 10.269,-22.917 22.917,-22.917Zm-0,2.083c11.498,0 20.833,9.336 20.833,20.834c0,11.498 -9.335,20.833 -20.833,20.833c-11.498,0 -20.834,-9.335 -20.834,-20.833c0,-11.498 9.336,-20.834 20.834,-20.834Z" style="fill:#4b5868;"/><path d="M83.138,56.857l-0,-14.74" style="fill:none;stroke:#4b5868;stroke-width:2.08px;"/><path d="M83.138,56.857l-7.449,6.275" style="fill:none;stroke:#4b5868;stroke-width:2.08px;"/></g><g id="Silver"></g><g id="Silver1" serif:id="Silver"></g></svg>