<?xml version="1.0" encoding="UTF-8" standalone="no"?><!DOCTYPE svg PUBLIC "-//W3C//DTD SVG 1.1//EN" "http://www.w3.org/Graphics/SVG/1.1/DTD/svg11.dtd"><svg width="100%" height="100%" viewBox="0 0 75 79" version="1.1" xmlns="http://www.w3.org/2000/svg" xmlns:xlink="http://www.w3.org/1999/xlink" xml:space="preserve" xmlns:serif="http://www.serif.com/" style="fill-rule:evenodd;clip-rule:evenodd;stroke-linecap:round;stroke-linejoin:round;stroke-miterlimit:3;"><rect id="Statistics-Icons" serif:id="Statistics Icons" x="-729.556" y="-592.335" width="2789.56" height="1843.74" style="fill:none;"/><g><path d="M47.436,77.502c-8.349,-6.656 -5.796,-17.723 6.572,-27.688c-0.66,5.398 0.216,10.728 3.844,15.939c-0.07,-1.884 0.485,-3.724 1.608,-5.523c7.773,9.353 0.797,16.32 -1.397,17.272c0,-0 13.199,-3.034 12.267,-19.137c-0.776,-13.398 -13.886,-15.848 -15.347,-31.065c-22.84,15.706 -27.208,43.284 -7.547,50.202" style="fill:none;stroke:#4b5868;stroke-width:2.08px;"/><path d="M29.452,62.491l-7.428,7.428l-19.941,2.982l2.982,-19.941l50.877,-50.877l16.959,16.959l-10.317,10.318" style="fill:none;stroke:#4b5868;stroke-width:4.17px;"/></g><g id="Silver"></g><g id="Silver1" serif:id="Silver"></g></svg>