<?xml version="1.0" encoding="UTF-8" standalone="no"?><!DOCTYPE svg PUBLIC "-//W3C//DTD SVG 1.1//EN" "http://www.w3.org/Graphics/SVG/1.1/DTD/svg11.dtd"><svg width="100%" height="100%" viewBox="0 0 78 78" version="1.1" xmlns="http://www.w3.org/2000/svg" xmlns:xlink="http://www.w3.org/1999/xlink" xml:space="preserve" xmlns:serif="http://www.serif.com/" style="fill-rule:evenodd;clip-rule:evenodd;stroke-linecap:round;stroke-linejoin:round;stroke-miterlimit:3;"><rect id="Statistics-Icons" serif:id="Statistics Icons" x="-727.186" y="-701.337" width="2789.56" height="1843.74" style="fill:none;"/><g><path d="M28.749,60.939l-7.237,7.237l-19.429,2.905l2.905,-19.428l49.57,-49.57l16.523,16.524l-10.052,10.052" style="fill:none;stroke:#4b5868;stroke-width:4.17px;"/><path d="M54.725,31.474c12.648,-0 22.917,10.268 22.917,22.916c0,12.648 -10.269,22.917 -22.917,22.917c-12.648,0 -22.916,-10.269 -22.916,-22.917c-0,-12.648 10.268,-22.916 22.916,-22.916Zm0,2.083c11.499,0 20.834,9.335 20.834,20.833c-0,11.499 -9.335,20.834 -20.834,20.834c-11.498,-0 -20.833,-9.335 -20.833,-20.834c0,-11.498 9.335,-20.833 20.833,-20.833Z" style="fill:#4b5868;"/><path d="M54.725,54.39l0,-14.739" style="fill:none;stroke:#4b5868;stroke-width:2.08px;stroke-linejoin:miter;"/><path d="M54.725,54.39l-7.449,6.276" style="fill:none;stroke:#4b5868;stroke-width:2.08px;stroke-linejoin:miter;"/></g><g id="Silver"></g><g id="Silver1" serif:id="Silver"></g></svg>