<?xml version="1.0" encoding="UTF-8" standalone="no"?><!DOCTYPE svg PUBLIC "-//W3C//DTD SVG 1.1//EN" "http://www.w3.org/Graphics/SVG/1.1/DTD/svg11.dtd"><svg width="100%" height="100%" viewBox="0 0 76 79" version="1.1" xmlns="http://www.w3.org/2000/svg" xmlns:xlink="http://www.w3.org/1999/xlink" xml:space="preserve" xmlns:serif="http://www.serif.com/" style="fill-rule:evenodd;clip-rule:evenodd;stroke-linecap:round;stroke-linejoin:round;stroke-miterlimit:3;"><rect id="Statistics-Icons" serif:id="Statistics Icons" x="-874.418" y="-801.61" width="2789.56" height="1843.74" style="fill:none;"/><g><path d="M75.418,20.743c0,-10.406 -8.448,-18.854 -18.854,-18.854l-37.709,-0c-10.407,-0 -18.855,8.448 -18.855,18.854l0,37.709c0,10.407 8.448,18.855 18.855,18.855l37.709,0c10.406,0 18.854,-8.448 18.854,-18.855l0,-37.709Z" style="fill:none;"/><path d="M30.852,58.072l-13.286,14.829l4.847,-20.628l-6.369,-0l10.508,-23.108l-8.502,0l11.51,-27.082l29.814,0l-8.69,15.022l5.614,-0l-13.444,19.905" style="fill:none;stroke:#4b5868;stroke-width:4.17px;"/><path d="M45.018,77.307l-8.711,0l0,-24.121l-5.455,-0l9.81,-11.723l9.811,11.723l-5.455,-0l-0,24.121Z" style="fill:none;stroke:#4b5868;stroke-width:2.08px;"/></g><g id="Silver"></g><g id="Silver1" serif:id="Silver"></g></svg>