<?xml version="1.0" encoding="UTF-8" standalone="no"?><!DOCTYPE svg PUBLIC "-//W3C//DTD SVG 1.1//EN" "http://www.w3.org/Graphics/SVG/1.1/DTD/svg11.dtd"><svg width="100%" height="100%" viewBox="0 0 99 79" version="1.1" xmlns="http://www.w3.org/2000/svg" xmlns:xlink="http://www.w3.org/1999/xlink" xml:space="preserve" xmlns:serif="http://www.serif.com/" style="fill-rule:evenodd;clip-rule:evenodd;stroke-linecap:round;stroke-linejoin:round;stroke-miterlimit:3;"><rect id="Statistics-Icons" serif:id="Statistics Icons" x="-717.076" y="-911.674" width="2789.56" height="1843.74" style="fill:none;"/><g><g><path d="M13.418,61.566l-11.335,0l0,11.335l34.005,0l-0,-11.335l-11.335,0l-0,-11.334l-11.335,-0l0,11.334Z" style="fill:none;stroke:#4b5868;stroke-width:4.17px;"/><path d="M2.083,38.897l0,22.679l11.335,0l0,-22.679l-11.335,-0Z" style="fill:none;stroke:#4b5868;stroke-width:4.17px;"/><path d="M70.985,36.48l0,-8.927l-11.334,-0l-0,8.996" style="fill:none;stroke:#4b5868;stroke-width:4.17px;"/><path d="M42.065,50.232l-5.977,-0l-0,22.669l2.331,0" style="fill:none;stroke:#4b5868;stroke-width:4.17px;"/><path d="M65.833,72.901l4.259,0l-0,-2.133" style="fill:none;stroke:#4b5868;stroke-width:4.17px;"/><path d="M47.422,2.083l-22.669,0l-0,34.005l11.335,-0l-0,-22.67l11.334,0l0,-11.335Z" style="fill:none;stroke:#4b5868;stroke-width:4.17px;"/></g><g><path d="M70.092,66.062l-6.75,-0.045c-2.144,6.916 -5.738,10.934 -11.31,11.29c-6.852,-0.18 -10.031,-4.125 -9.684,-11.685l6.941,-20.47c2.134,-2.362 4.408,-3.436 6.771,-3.689l28.064,-0c2.362,0.253 4.636,1.327 6.77,3.689l6.942,20.47c0.347,7.56 -2.832,11.505 -9.684,11.685c-5.572,-0.356 -9.167,-4.374 -11.311,-11.29l-6.749,0.045Z" style="fill:none;stroke:#4b5868;stroke-width:2.08px;"/><g><path d="M59.462,49.469l-0,10.759" style="fill:none;stroke:#4b5868;stroke-width:2.08px;stroke-miterlimit:1.5;"/><path d="M54.083,54.849l10.758,-0" style="fill:none;stroke:#4b5868;stroke-width:2.08px;stroke-miterlimit:1.5;"/></g><g><circle cx="76.049" cy="54.849" r="0.698" style="fill:#4b5868;stroke:#4b5868;stroke-width:2.08px;stroke-miterlimit:1.5;"/><circle cx="85.023" cy="54.849" r="0.698" style="fill:#4b5868;stroke:#4b5868;stroke-width:2.08px;stroke-miterlimit:1.5;"/><path d="M81.234,50.362c0,0.385 -0.312,0.698 -0.698,0.698c-0.385,0 -0.698,-0.313 -0.698,-0.698c-0,-0.386 0.313,-0.698 0.698,-0.698c0.386,-0 0.698,0.312 0.698,0.698Z" style="fill:#4b5868;stroke:#4b5868;stroke-width:2.08px;stroke-miterlimit:1.5;"/><path d="M81.234,59.335c0,0.386 -0.312,0.699 -0.698,0.699c-0.385,-0 -0.698,-0.313 -0.698,-0.699c-0,-0.385 0.313,-0.698 0.698,-0.698c0.386,-0 0.698,0.313 0.698,0.698Z" style="fill:#4b5868;stroke:#4b5868;stroke-width:2.08px;stroke-miterlimit:1.5;"/></g></g></g><g id="Silver"></g><g id="Silver1" serif:id="Silver"></g></svg>