<?xml version="1.0" encoding="UTF-8" standalone="no"?><!DOCTYPE svg PUBLIC "-//W3C//DTD SVG 1.1//EN" "http://www.w3.org/Graphics/SVG/1.1/DTD/svg11.dtd"><svg width="100%" height="100%" viewBox="0 0 95 84" version="1.1" xmlns="http://www.w3.org/2000/svg" xmlns:xlink="http://www.w3.org/1999/xlink" xml:space="preserve" xmlns:serif="http://www.serif.com/" style="fill-rule:evenodd;clip-rule:evenodd;stroke-linecap:round;stroke-linejoin:round;stroke-miterlimit:3;"><rect id="Statistics-Icons" serif:id="Statistics Icons" x="-719.34" y="-1017.87" width="2789.56" height="1843.74" style="fill:none;"/><g id="Silver"></g><g id="Silver1" serif:id="Silver"></g><g><g><path d="M34.333,66.723l-6.36,-0c-0,-5.374 -0.78,-10.399 -2.296,-15.125c-6.727,-3.091 -11.403,-9.891 -11.403,-17.774c-0,-10.79 8.76,-19.55 19.55,-19.55c10.79,-0 19.55,8.76 19.55,19.55c0,2.723 -0.558,5.317 -1.565,7.673" style="fill:none;stroke:#4b5868;stroke-width:4.17px;"/><path d="M28.876,72.305l4.271,-0" style="fill:none;stroke:#4b5868;stroke-width:4.17px;"/><path d="M31.322,77.886l2.502,0" style="fill:none;stroke:#4b5868;stroke-width:4.17px;"/><path d="M33.824,2.083l-0,4.948" style="fill:none;stroke:#4b5868;stroke-width:4.17px;"/><path d="M65.564,33.824l-4.948,-0" style="fill:none;stroke:#4b5868;stroke-width:4.17px;"/><path d="M2.083,33.824l4.948,-0" style="fill:none;stroke:#4b5868;stroke-width:4.17px;"/><path d="M11.38,11.38l3.499,3.499" style="fill:none;stroke:#4b5868;stroke-width:4.17px;"/><path d="M56.268,11.38l-3.499,3.499" style="fill:none;stroke:#4b5868;stroke-width:4.17px;"/><path d="M11.38,56.268l3.499,-3.499" style="fill:none;stroke:#4b5868;stroke-width:4.17px;"/><path d="M32.221,41.354c-0.012,-0.423 -0.018,-0.74 -0.018,-0.952c0,-1.245 0.176,-2.319 0.529,-3.224c0.258,-0.681 0.675,-1.368 1.25,-2.061c0.423,-0.505 1.184,-1.242 2.282,-2.211c1.098,-0.969 1.812,-1.741 2.141,-2.317c0.328,-0.575 0.493,-1.204 0.493,-1.885c-0,-1.233 -0.482,-2.317 -1.445,-3.251c-0.963,-0.933 -2.143,-1.4 -3.541,-1.4c-1.351,-0 -2.478,0.423 -3.383,1.268c-0.904,0.846 -1.497,2.167 -1.779,3.964l-3.259,-0.387c0.293,-2.408 1.165,-4.252 2.616,-5.532c1.45,-1.281 3.368,-1.921 5.752,-1.921c2.525,0 4.54,0.687 6.043,2.062c1.504,1.374 2.255,3.036 2.255,4.985c0,1.128 -0.264,2.167 -0.793,3.119c-0.528,0.951 -1.562,2.108 -3.1,3.471c-1.034,0.916 -1.709,1.591 -2.026,2.026c-0.318,0.434 -0.552,0.933 -0.705,1.497c-0.153,0.564 -0.241,1.48 -0.264,2.749l-3.048,-0Zm-0.194,6.36l-0,-3.612l3.612,0l-0,3.612l-3.612,-0Z" style="fill:#4b5868;fill-rule:nonzero;stroke:#4b5868;stroke-width:1.35px;"/></g><g><path d="M65.564,71.047l-6.749,-0.045c-2.144,6.916 -5.739,10.934 -11.311,11.29c-6.852,-0.179 -10.03,-4.125 -9.684,-11.684l6.942,-20.47c2.134,-2.363 4.408,-3.436 6.77,-3.69l28.064,-0c2.363,0.254 4.637,1.327 6.771,3.69l6.942,20.47c0.346,7.559 -2.833,11.505 -9.685,11.684c-5.572,-0.356 -9.166,-4.374 -11.31,-11.29l-6.75,0.045Z" style="fill:none;stroke:#4b5868;stroke-width:2.08px;"/><g><path d="M54.934,54.455l0,10.758" style="fill:none;stroke:#4b5868;stroke-width:2.08px;stroke-miterlimit:1.5;"/><path d="M49.555,59.834l10.759,-0" style="fill:none;stroke:#4b5868;stroke-width:2.08px;stroke-miterlimit:1.5;"/></g><g><circle cx="71.522" cy="59.834" r="0.698" style="fill:#4b5868;stroke:#4b5868;stroke-width:2.08px;stroke-miterlimit:1.5;"/><circle cx="80.495" cy="59.834" r="0.698" style="fill:#4b5868;stroke:#4b5868;stroke-width:2.08px;stroke-miterlimit:1.5;"/><path d="M76.707,55.347c0,0.386 -0.313,0.699 -0.698,0.699c-0.386,-0 -0.699,-0.313 -0.699,-0.699c0,-0.385 0.313,-0.698 0.699,-0.698c0.385,-0 0.698,0.313 0.698,0.698Z" style="fill:#4b5868;stroke:#4b5868;stroke-width:2.08px;stroke-miterlimit:1.5;"/><path d="M76.707,64.321c0,0.385 -0.313,0.698 -0.698,0.698c-0.386,-0 -0.699,-0.313 -0.699,-0.698c0,-0.386 0.313,-0.699 0.699,-0.699c0.385,0 0.698,0.313 0.698,0.699Z" style="fill:#4b5868;stroke:#4b5868;stroke-width:2.08px;stroke-miterlimit:1.5;"/></g></g></g></svg>