<?xml version="1.0" encoding="UTF-8" standalone="no"?><!DOCTYPE svg PUBLIC "-//W3C//DTD SVG 1.1//EN" "http://www.w3.org/Graphics/SVG/1.1/DTD/svg11.dtd"><svg width="100%" height="100%" viewBox="0 0 101 79" version="1.1" xmlns="http://www.w3.org/2000/svg" xmlns:xlink="http://www.w3.org/1999/xlink" xml:space="preserve" xmlns:serif="http://www.serif.com/" style="fill-rule:evenodd;clip-rule:evenodd;stroke-linecap:round;stroke-linejoin:round;stroke-miterlimit:3;"><rect id="Statistics-Icons" serif:id="Statistics Icons" x="-719.34" y="-1135.84" width="2789.56" height="1843.74" style="fill:none;"/><g><g><path d="M2.083,73.995l36.908,0.961c1.019,0 1.847,-0.827 1.847,-1.846c-0,-1.019 -0.828,-1.847 -1.847,-1.847l-36.908,0.962c-0.488,-0 -0.885,0.396 -0.885,0.885c0,0.488 0.397,0.885 0.885,0.885Z" style="fill:#4b5868;"/><path d="M42.304,52.507l-35.07,-0c-2.843,-0 -5.151,-2.308 -5.151,-5.151l0,-10.302c0,-2.842 2.308,-5.15 5.151,-5.15l69.104,-0c2.842,-0 5.15,-2.308 5.15,-5.151l0,-10.302c0,-2.842 -2.308,-5.15 -5.15,-5.15l-57.683,-0" style="fill:none;stroke:#4b5868;stroke-width:4.17px;"/><path d="M2.921,17.818c3.6,3.6 9.436,3.6 13.036,-0c3.598,-3.598 3.598,-9.439 0,-13.037c-3.6,-3.599 -9.436,-3.599 -13.036,0l6.518,6.519l-6.518,6.518Z" style="fill:none;stroke:#4b5868;stroke-width:4.17px;"/></g><g><path d="M71.514,66.27l-6.75,-0.045c-2.144,6.916 -5.738,10.934 -11.31,11.291c-6.852,-0.18 -10.031,-4.126 -9.684,-11.685l6.941,-20.47c2.134,-2.363 4.408,-3.436 6.771,-3.69l28.064,0c2.362,0.254 4.636,1.327 6.77,3.69l6.942,20.47c0.347,7.559 -2.832,11.505 -9.684,11.685c-5.572,-0.357 -9.167,-4.375 -11.311,-11.291l-6.749,0.045Z" style="fill:none;stroke:#4b5868;stroke-width:2.08px;"/><g><path d="M60.884,49.678l-0,10.758" style="fill:none;stroke:#4b5868;stroke-width:2.08px;stroke-miterlimit:1.5;"/><path d="M55.505,55.057l10.758,0" style="fill:none;stroke:#4b5868;stroke-width:2.08px;stroke-miterlimit:1.5;"/></g><g><circle cx="77.471" cy="55.057" r="0.698" style="fill:#4b5868;stroke:#4b5868;stroke-width:2.08px;stroke-miterlimit:1.5;"/><circle cx="86.445" cy="55.057" r="0.698" style="fill:#4b5868;stroke:#4b5868;stroke-width:2.08px;stroke-miterlimit:1.5;"/><path d="M82.656,50.57c0,0.386 -0.313,0.699 -0.698,0.699c-0.386,-0 -0.698,-0.313 -0.698,-0.699c-0,-0.385 0.312,-0.698 0.698,-0.698c0.385,0 0.698,0.313 0.698,0.698Z" style="fill:#4b5868;stroke:#4b5868;stroke-width:2.08px;stroke-miterlimit:1.5;"/><path d="M82.656,59.544c0,0.385 -0.313,0.698 -0.698,0.698c-0.386,0 -0.698,-0.313 -0.698,-0.698c-0,-0.386 0.312,-0.699 0.698,-0.699c0.385,0 0.698,0.313 0.698,0.699Z" style="fill:#4b5868;stroke:#4b5868;stroke-width:2.08px;stroke-miterlimit:1.5;"/></g></g></g><g id="Silver"></g><g id="Silver1" serif:id="Silver"></g></svg>